<svg width="404" height="40" viewBox="0 0 404 40" fill="none" xmlns="http://www.w3.org/2000/svg">
<g clip-path="url(#clip0)">
<rect width="116" height="40" rx="4" fill="#F7EDF0"/>
<path d="M20.672 31.966L23.171 25.68H23.528L21.029 31.966H20.672ZM24.9463 27.388H25.3453V27.962H25.3663C25.4689 27.766 25.6113 27.6073 25.7933 27.486C25.9799 27.3647 26.2109 27.304 26.4863 27.304C26.9389 27.304 27.2913 27.4673 27.5433 27.794C27.7953 28.116 27.9213 28.5827 27.9213 29.194C27.9213 29.8053 27.7953 30.2743 27.5433 30.601C27.2913 30.923 26.9389 31.084 26.4863 31.084C26.2109 31.084 25.9799 31.0233 25.7933 30.902C25.6113 30.7807 25.4689 30.622 25.3663 30.426H25.3453V32.4H24.9463V27.388ZM26.3533 30.727C26.7173 30.727 26.9973 30.6127 27.1933 30.384C27.3939 30.1553 27.4943 29.8427 27.4943 29.446V28.942C27.4943 28.5453 27.3939 28.2327 27.1933 28.004C26.9973 27.7753 26.7173 27.661 26.3533 27.661C26.2179 27.661 26.0896 27.6797 25.9683 27.717C25.8469 27.7543 25.7396 27.808 25.6463 27.878C25.5529 27.948 25.4783 28.0343 25.4223 28.137C25.3709 28.2397 25.3453 28.354 25.3453 28.48V29.908C25.3453 30.034 25.3709 30.1483 25.4223 30.251C25.4783 30.3537 25.5529 30.44 25.6463 30.51C25.7396 30.58 25.8469 30.6337 25.9683 30.671C26.0896 30.7083 26.2179 30.727 26.3533 30.727ZM31.4325 30.44H31.4045C31.3345 30.608 31.2155 30.7573 31.0475 30.888C30.8842 31.0187 30.6509 31.084 30.3475 31.084C29.9555 31.084 29.6499 30.9673 29.4305 30.734C29.2159 30.496 29.1085 30.1577 29.1085 29.719V27.388H29.5075V29.649C29.5075 30.0223 29.5869 30.2953 29.7455 30.468C29.9089 30.6407 30.1445 30.727 30.4525 30.727C30.5785 30.727 30.6999 30.7107 30.8165 30.678C30.9332 30.6453 31.0359 30.5963 31.1245 30.531C31.2179 30.4657 31.2925 30.384 31.3485 30.286C31.4045 30.1833 31.4325 30.0643 31.4325 29.929V27.388H31.8315V31H31.4325V30.44ZM33.3408 25.82H33.7398V27.962H33.7608C33.8635 27.766 34.0058 27.6073 34.1878 27.486C34.3745 27.3647 34.6055 27.304 34.8808 27.304C35.3335 27.304 35.6858 27.4673 35.9378 27.794C36.1898 28.116 36.3158 28.5827 36.3158 29.194C36.3158 29.8053 36.1898 30.2743 35.9378 30.601C35.6858 30.923 35.3335 31.084 34.8808 31.084C34.6055 31.084 34.3745 31.0233 34.1878 30.902C34.0058 30.7807 33.8635 30.622 33.7608 30.426H33.7398V31H33.3408V25.82ZM34.7478 30.727C35.1118 30.727 35.3918 30.6127 35.5878 30.384C35.7885 30.1553 35.8888 29.8427 35.8888 29.446V28.942C35.8888 28.5453 35.7885 28.2327 35.5878 28.004C35.3918 27.7753 35.1118 27.661 34.7478 27.661C34.6125 27.661 34.4841 27.6797 34.3628 27.717C34.2415 27.7543 34.1341 27.808 34.0408 27.878C33.9475 27.948 33.8728 28.0343 33.8168 28.137C33.7655 28.2397 33.7398 28.354 33.7398 28.48V29.908C33.7398 30.034 33.7655 30.1483 33.8168 30.251C33.8728 30.3537 33.9475 30.44 34.0408 30.51C34.1341 30.58 34.2415 30.6337 34.3628 30.671C34.4841 30.7083 34.6125 30.727 34.7478 30.727ZM37.3771 30.657H38.6931V26.163H37.3771V25.82H39.0921V30.657H40.4011V31H37.3771V30.657ZM43.3103 26.422C43.1843 26.422 43.0933 26.3963 43.0373 26.345C42.986 26.289 42.9603 26.2213 42.9603 26.142V26.051C42.9603 25.9717 42.986 25.9063 43.0373 25.855C43.0933 25.799 43.1843 25.771 43.3103 25.771C43.4363 25.771 43.525 25.799 43.5763 25.855C43.6323 25.9063 43.6603 25.9717 43.6603 26.051V26.142C43.6603 26.2213 43.6323 26.289 43.5763 26.345C43.525 26.3963 43.4363 26.422 43.3103 26.422ZM41.7563 30.657H43.1143V27.731H41.7563V27.388H43.5133V30.657H44.7803V31H41.7563V30.657ZM47.4236 31.084C46.9196 31.084 46.5299 30.9183 46.2546 30.587C45.9793 30.2557 45.8416 29.7913 45.8416 29.194C45.8416 28.5967 45.9793 28.1323 46.2546 27.801C46.5346 27.4697 46.9219 27.304 47.4166 27.304C47.7526 27.304 48.0279 27.381 48.2426 27.535C48.4573 27.6843 48.6113 27.878 48.7046 28.116L48.3826 28.277C48.3079 28.0763 48.1889 27.9223 48.0256 27.815C47.8623 27.7077 47.6593 27.654 47.4166 27.654C47.0479 27.654 46.7633 27.773 46.5626 28.011C46.3666 28.2443 46.2686 28.5547 46.2686 28.942V29.446C46.2686 29.8333 46.3666 30.146 46.5626 30.384C46.7633 30.6173 47.0503 30.734 47.4236 30.734C47.6803 30.734 47.8949 30.6757 48.0676 30.559C48.2403 30.4423 48.3733 30.279 48.4666 30.069L48.7606 30.258C48.6579 30.496 48.4969 30.6943 48.2776 30.853C48.0583 31.007 47.7736 31.084 47.4236 31.084ZM50.0529 31.966L52.5519 25.68H52.9089L50.4099 31.966H50.0529ZM55.9021 26.422C55.7761 26.422 55.6851 26.3963 55.6291 26.345C55.5778 26.289 55.5521 26.2213 55.5521 26.142V26.051C55.5521 25.9717 55.5778 25.9063 55.6291 25.855C55.6851 25.799 55.7761 25.771 55.9021 25.771C56.0281 25.771 56.1168 25.799 56.1681 25.855C56.2241 25.9063 56.2521 25.9717 56.2521 26.051V26.142C56.2521 26.2213 56.2241 26.289 56.1681 26.345C56.1168 26.3963 56.0281 26.422 55.9021 26.422ZM54.3481 30.657H55.7061V27.731H54.3481V27.388H56.1051V30.657H57.3721V31H54.3481V30.657ZM58.5384 31V27.388H58.9374V27.948H58.9654C59.0354 27.78 59.1521 27.6307 59.3154 27.5C59.4834 27.3693 59.7191 27.304 60.0224 27.304C60.4144 27.304 60.7177 27.423 60.9324 27.661C61.1517 27.8943 61.2614 28.2303 61.2614 28.669V31H60.8624V28.739C60.8624 28.3657 60.7807 28.0927 60.6174 27.92C60.4587 27.7473 60.2254 27.661 59.9174 27.661C59.7914 27.661 59.6701 27.6773 59.5534 27.71C59.4367 27.7427 59.3317 27.7917 59.2384 27.857C59.1497 27.9223 59.0774 28.0063 59.0214 28.109C58.9654 28.207 58.9374 28.3237 58.9374 28.459V31H58.5384ZM65.0247 30.426H65.0037C64.901 30.622 64.7563 30.7807 64.5697 30.902C64.3877 31.0233 64.159 31.084 63.8837 31.084C63.431 31.084 63.0787 30.923 62.8267 30.601C62.5747 30.2743 62.4487 29.8053 62.4487 29.194C62.4487 28.5827 62.5747 28.116 62.8267 27.794C63.0787 27.4673 63.431 27.304 63.8837 27.304C64.159 27.304 64.3877 27.3647 64.5697 27.486C64.7563 27.6073 64.901 27.766 65.0037 27.962H65.0247V25.82H65.4237V31H65.0247V30.426ZM64.0167 30.727C64.152 30.727 64.2803 30.7083 64.4017 30.671C64.523 30.6337 64.6303 30.58 64.7237 30.51C64.817 30.44 64.8893 30.3537 64.9407 30.251C64.9967 30.1483 65.0247 30.034 65.0247 29.908V28.48C65.0247 28.354 64.9967 28.2397 64.9407 28.137C64.8893 28.0343 64.817 27.948 64.7237 27.878C64.6303 27.808 64.523 27.7543 64.4017 27.717C64.2803 27.6797 64.152 27.661 64.0167 27.661C63.6527 27.661 63.3703 27.7753 63.1697 28.004C62.9737 28.2327 62.8757 28.5453 62.8757 28.942V29.446C62.8757 29.8427 62.9737 30.1553 63.1697 30.384C63.3703 30.6127 63.6527 30.727 64.0167 30.727ZM68.3259 31.084C67.8219 31.084 67.4253 30.9207 67.1359 30.594C66.8513 30.2627 66.7089 29.7983 66.7089 29.201C66.7089 28.9023 66.7463 28.6363 66.8209 28.403C66.8956 28.165 67.0006 27.9667 67.1359 27.808C67.2759 27.6447 67.4439 27.521 67.6399 27.437C67.8359 27.3483 68.0529 27.304 68.2909 27.304C68.5336 27.304 68.7506 27.3483 68.9419 27.437C69.1333 27.521 69.2943 27.6423 69.4249 27.801C69.5603 27.9597 69.6629 28.1487 69.7329 28.368C69.8029 28.5873 69.8379 28.83 69.8379 29.096V29.271H67.1289V29.446C67.1289 29.8333 67.2339 30.146 67.4439 30.384C67.6539 30.6173 67.9479 30.734 68.3259 30.734C68.5919 30.734 68.8183 30.6733 69.0049 30.552C69.1963 30.4307 69.3433 30.251 69.4459 30.013L69.7469 30.202C69.6396 30.468 69.4646 30.6827 69.2219 30.846C68.9793 31.0047 68.6806 31.084 68.3259 31.084ZM68.2909 27.64C68.1136 27.64 67.9526 27.6727 67.8079 27.738C67.6679 27.7987 67.5466 27.885 67.4439 27.997C67.3459 28.109 67.2689 28.2443 67.2129 28.403C67.1569 28.5617 67.1289 28.7367 67.1289 28.928V28.97H69.4109V28.914C69.4109 28.522 69.3106 28.2117 69.1099 27.983C68.9139 27.7543 68.6409 27.64 68.2909 27.64ZM70.8712 31L72.2292 29.173L70.8992 27.388H71.3822L72.4742 28.872H72.4952L73.5802 27.388H74.0352L72.6982 29.166L74.0702 31H73.5872L72.4602 29.467H72.4392L71.3332 31H70.8712ZM76.6645 31.049C76.5151 31.049 76.4101 31.0187 76.3495 30.958C76.2888 30.8973 76.2585 30.818 76.2585 30.72V30.622C76.2585 30.5287 76.2888 30.4517 76.3495 30.391C76.4101 30.3257 76.5151 30.293 76.6645 30.293C76.8138 30.293 76.9188 30.3257 76.9795 30.391C77.0401 30.4517 77.0705 30.5287 77.0705 30.622V30.72C77.0705 30.818 77.0401 30.8973 76.9795 30.958C76.9188 31.0187 76.8138 31.049 76.6645 31.049ZM79.5247 25.82H79.9237V27.948H79.9517C80.0217 27.78 80.1384 27.6307 80.3017 27.5C80.4697 27.3693 80.7054 27.304 81.0087 27.304C81.4007 27.304 81.7041 27.423 81.9187 27.661C82.1381 27.8943 82.2477 28.2303 82.2477 28.669V31H81.8487V28.739C81.8487 28.3657 81.7671 28.0927 81.6037 27.92C81.4451 27.7473 81.2117 27.661 80.9037 27.661C80.7777 27.661 80.6564 27.6773 80.5397 27.71C80.4231 27.7427 80.3181 27.7917 80.2247 27.857C80.1361 27.9223 80.0637 28.0063 80.0077 28.109C79.9517 28.207 79.9237 28.3237 79.9237 28.459V31H79.5247V25.82ZM85.073 31C84.877 31 84.7323 30.9487 84.639 30.846C84.5503 30.7387 84.506 30.5963 84.506 30.419V27.731H83.225V27.388H84.24C84.3427 27.388 84.415 27.367 84.457 27.325C84.499 27.283 84.52 27.2107 84.52 27.108V26.114H84.905V27.388H86.627V27.731H84.905V30.657H86.627V31H85.073ZM87.5903 31V27.388H87.9613V27.808H87.9823C88.0383 27.668 88.1199 27.549 88.2273 27.451C88.3393 27.353 88.4956 27.304 88.6963 27.304C88.9016 27.304 89.0603 27.3553 89.1723 27.458C89.2843 27.556 89.3543 27.6937 89.3823 27.871H89.3963C89.4616 27.7077 89.5549 27.5723 89.6763 27.465C89.7976 27.3577 89.9656 27.304 90.1803 27.304C90.4603 27.304 90.6539 27.3973 90.7613 27.584C90.8733 27.766 90.9293 28.032 90.9293 28.382V31H90.5583V28.445C90.5583 28.151 90.5163 27.9433 90.4323 27.822C90.3529 27.7007 90.2246 27.64 90.0473 27.64C89.8793 27.64 89.7369 27.6983 89.6203 27.815C89.5036 27.927 89.4453 28.0997 89.4453 28.333V31H89.0743V28.445C89.0743 28.151 89.0323 27.9433 88.9483 27.822C88.8689 27.7007 88.7406 27.64 88.5633 27.64C88.3953 27.64 88.2529 27.6983 88.1363 27.815C88.0196 27.927 87.9613 28.0997 87.9613 28.333V31H87.5903ZM91.9415 30.657H93.2575V26.163H91.9415V25.82H93.6565V30.657H94.9655V31H91.9415V30.657Z" fill="black"/>
<path d="M18 17.328H18.84V10.536H18V9.744H24.684V11.976H23.292V10.608H20.784V13.5H22.368V12.78H23.256V15.084H22.368V14.364H20.784V17.328H21.924V18.12H18V17.328Z" fill="black"/>
<path d="M25.3114 17.328H26.0314V13.044L25.3114 12.888V12.204L27.8194 11.688V12.876H27.8674C27.9794 12.54 28.1594 12.26 28.4074 12.036C28.6554 11.804 28.9794 11.688 29.3794 11.688C29.7714 11.688 30.0794 11.796 30.3034 12.012C30.5274 12.22 30.6394 12.508 30.6394 12.876C30.6394 13.196 30.5554 13.448 30.3874 13.632C30.2194 13.816 29.9834 13.908 29.6794 13.908C29.3914 13.908 29.1714 13.832 29.0194 13.68C28.8674 13.52 28.7914 13.332 28.7914 13.116C28.7914 13.02 28.8114 12.932 28.8514 12.852C28.8914 12.772 28.9394 12.72 28.9954 12.696L28.9834 12.636C28.9594 12.628 28.9234 12.624 28.8754 12.624C28.7474 12.624 28.6234 12.66 28.5034 12.732C28.3834 12.804 28.2754 12.896 28.1794 13.008C28.0834 13.12 28.0034 13.244 27.9394 13.38C27.8834 13.516 27.8554 13.648 27.8554 13.776V17.328H28.8154V18.12H25.3114V17.328Z" fill="black"/>
<path d="M34.2773 17.4C35.0133 17.4 35.3813 16.96 35.3813 16.08V13.872C35.3813 12.992 35.0133 12.552 34.2773 12.552C33.5413 12.552 33.1733 12.992 33.1733 13.872V16.08C33.1733 16.96 33.5413 17.4 34.2773 17.4ZM34.2773 18.264C33.8213 18.264 33.4053 18.192 33.0293 18.048C32.6613 17.896 32.3413 17.68 32.0693 17.4C31.8053 17.12 31.6013 16.776 31.4573 16.368C31.3133 15.96 31.2413 15.496 31.2413 14.976C31.2413 14.456 31.3133 13.992 31.4573 13.584C31.6013 13.176 31.8053 12.832 32.0693 12.552C32.3413 12.272 32.6613 12.06 33.0293 11.916C33.4053 11.764 33.8213 11.688 34.2773 11.688C34.7333 11.688 35.1453 11.764 35.5133 11.916C35.8893 12.06 36.2093 12.272 36.4733 12.552C36.7453 12.832 36.9533 13.176 37.0973 13.584C37.2413 13.992 37.3133 14.456 37.3133 14.976C37.3133 15.496 37.2413 15.96 37.0973 16.368C36.9533 16.776 36.7453 17.12 36.4733 17.4C36.2093 17.68 35.8893 17.896 35.5133 18.048C35.1453 18.192 34.7333 18.264 34.2773 18.264Z" fill="black"/>
<path d="M38.2137 17.328H38.9337V13.044L38.2137 12.888V12.204L40.7217 11.688V12.876H40.7817C40.8937 12.556 41.0937 12.28 41.3817 12.048C41.6697 11.808 42.0657 11.688 42.5697 11.688C43.3377 11.688 43.8777 11.884 44.1897 12.276C44.5097 12.66 44.6697 13.24 44.6697 14.016V17.328H45.3897V18.12H42.1857V17.328H42.8457V14.076C42.8457 13.652 42.7697 13.352 42.6177 13.176C42.4737 12.992 42.2257 12.9 41.8737 12.9C41.7377 12.9 41.6017 12.92 41.4657 12.96C41.3297 12.992 41.2097 13.048 41.1057 13.128C41.0017 13.2 40.9177 13.296 40.8537 13.416C40.7897 13.528 40.7577 13.668 40.7577 13.836V17.328H41.4177V18.12H38.2137V17.328Z" fill="black"/>
<path d="M48.199 18.24C47.719 18.24 47.363 18.136 47.131 17.928C46.907 17.712 46.795 17.396 46.795 16.98V12.672H45.955V11.832H46.279C46.543 11.832 46.735 11.776 46.855 11.664C46.983 11.544 47.103 11.368 47.215 11.136L47.719 10.092H48.619V11.832H49.999V12.672H48.619V17.304H49.999V18.012C49.871 18.068 49.643 18.12 49.315 18.168C48.987 18.216 48.615 18.24 48.199 18.24Z" fill="black"/>
<path d="M53.7196 18.264C53.2236 18.264 52.7836 18.184 52.3996 18.024C52.0236 17.856 51.7036 17.628 51.4396 17.34C51.1836 17.044 50.9876 16.696 50.8516 16.296C50.7156 15.888 50.6476 15.444 50.6476 14.964C50.6476 14.46 50.7156 14.004 50.8516 13.596C50.9956 13.188 51.1956 12.844 51.4516 12.564C51.7156 12.284 52.0276 12.068 52.3876 11.916C52.7556 11.764 53.1636 11.688 53.6116 11.688C54.0596 11.688 54.4636 11.756 54.8236 11.892C55.1836 12.028 55.4876 12.224 55.7356 12.48C55.9916 12.728 56.1876 13.032 56.3236 13.392C56.4596 13.752 56.5276 14.152 56.5276 14.592V15H52.5796V15.48C52.5796 16.016 52.7196 16.42 52.9996 16.692C53.2796 16.964 53.6516 17.1 54.1156 17.1C54.5476 17.1 54.8956 17.004 55.1596 16.812C55.4236 16.612 55.6116 16.372 55.7236 16.092L56.3836 16.488C56.3116 16.688 56.2076 16.892 56.0716 17.1C55.9356 17.308 55.7596 17.5 55.5436 17.676C55.3276 17.844 55.0676 17.984 54.7636 18.096C54.4596 18.208 54.1116 18.264 53.7196 18.264ZM52.5796 14.244H54.6436V14.076C54.6436 13.5 54.5516 13.096 54.3676 12.864C54.1836 12.632 53.9316 12.516 53.6116 12.516C53.2916 12.516 53.0396 12.632 52.8556 12.864C52.6716 13.096 52.5796 13.5 52.5796 14.076V14.244Z" fill="black"/>
<path d="M57.4325 17.328H58.1525V13.044L57.4325 12.888V12.204L59.9405 11.688V12.876H60.0005C60.1125 12.556 60.3125 12.28 60.6005 12.048C60.8885 11.808 61.2845 11.688 61.7885 11.688C62.5565 11.688 63.0965 11.884 63.4085 12.276C63.7285 12.66 63.8885 13.24 63.8885 14.016V17.328H64.6085V18.12H61.4045V17.328H62.0645V14.076C62.0645 13.652 61.9885 13.352 61.8365 13.176C61.6925 12.992 61.4445 12.9 61.0925 12.9C60.9565 12.9 60.8205 12.92 60.6845 12.96C60.5485 12.992 60.4285 13.048 60.3245 13.128C60.2205 13.2 60.1365 13.296 60.0725 13.416C60.0085 13.528 59.9765 13.668 59.9765 13.836V17.328H60.6365V18.12H57.4325V17.328Z" fill="black"/>
<path d="M67.9338 18.264C67.5498 18.264 67.2018 18.188 66.8898 18.036C66.5858 17.876 66.3258 17.652 66.1098 17.364C65.8938 17.076 65.7258 16.732 65.6058 16.332C65.4938 15.924 65.4378 15.472 65.4378 14.976C65.4378 14.48 65.4938 14.032 65.6058 13.632C65.7258 13.224 65.8938 12.876 66.1098 12.588C66.3258 12.3 66.5858 12.08 66.8898 11.928C67.2018 11.768 67.5498 11.688 67.9338 11.688C68.1578 11.688 68.3578 11.72 68.5338 11.784C68.7178 11.84 68.8778 11.916 69.0138 12.012C69.1578 12.108 69.2778 12.22 69.3738 12.348C69.4698 12.476 69.5458 12.608 69.6018 12.744H69.6618V10.356L68.9418 10.2V9.516L71.4858 9V16.908L72.2058 17.064V17.748L69.6618 18.264V17.184H69.6018C69.4898 17.464 69.2898 17.716 69.0018 17.94C68.7218 18.156 68.3658 18.264 67.9338 18.264ZM68.5458 17.16C68.8658 17.16 69.1298 17.06 69.3378 16.86C69.5538 16.66 69.6618 16.392 69.6618 16.056V13.884C69.6618 13.548 69.5538 13.28 69.3378 13.08C69.1298 12.88 68.8658 12.78 68.5458 12.78C68.2098 12.78 67.9298 12.896 67.7058 13.128C67.4818 13.36 67.3698 13.7 67.3698 14.148V15.792C67.3698 16.24 67.4818 16.58 67.7058 16.812C67.9298 17.044 68.2098 17.16 68.5458 17.16Z" fill="black"/>
<path d="M75.4729 17.328H76.0729L78.6769 9.744H80.3329L82.9369 17.328H83.5369V18.12H80.0209V17.328H80.9809L80.4049 15.564H77.6689L77.0929 17.328H78.0529V18.12H75.4729V17.328ZM77.9089 14.736H80.1889L79.0609 11.208H79.0129L77.9089 14.736Z" fill="black"/>
<path d="M83.9023 19.728H84.6223V13.044L83.9023 12.888V12.204L86.4463 11.688V12.768H86.5183C86.6303 12.488 86.8263 12.24 87.1063 12.024C87.3863 11.8 87.7423 11.688 88.1743 11.688C88.5583 11.688 88.9023 11.768 89.2063 11.928C89.5183 12.08 89.7823 12.3 89.9983 12.588C90.2143 12.876 90.3783 13.224 90.4903 13.632C90.6103 14.032 90.6703 14.48 90.6703 14.976C90.6703 15.472 90.6103 15.924 90.4903 16.332C90.3783 16.732 90.2143 17.076 89.9983 17.364C89.7823 17.652 89.5183 17.876 89.2063 18.036C88.9023 18.188 88.5583 18.264 88.1743 18.264C87.7183 18.264 87.3543 18.16 87.0823 17.952C86.8103 17.736 86.6183 17.488 86.5063 17.208H86.4463V19.728H87.4063V20.52H83.9023V19.728ZM87.5623 17.16C87.8983 17.16 88.1783 17.044 88.4023 16.812C88.6263 16.58 88.7383 16.24 88.7383 15.792V14.148C88.7383 13.7 88.6263 13.36 88.4023 13.128C88.1783 12.896 87.8983 12.78 87.5623 12.78C87.2423 12.78 86.9743 12.88 86.7583 13.08C86.5503 13.28 86.4463 13.548 86.4463 13.884V16.056C86.4463 16.392 86.5503 16.66 86.7583 16.86C86.9743 17.06 87.2423 17.16 87.5623 17.16Z" fill="black"/>
<path d="M91.4961 19.728H92.2161V13.044L91.4961 12.888V12.204L94.0401 11.688V12.768H94.1121C94.2241 12.488 94.4201 12.24 94.7001 12.024C94.9801 11.8 95.3361 11.688 95.7681 11.688C96.1521 11.688 96.4961 11.768 96.8001 11.928C97.1121 12.08 97.3761 12.3 97.5921 12.588C97.8081 12.876 97.9721 13.224 98.0841 13.632C98.2041 14.032 98.2641 14.48 98.2641 14.976C98.2641 15.472 98.2041 15.924 98.0841 16.332C97.9721 16.732 97.8081 17.076 97.5921 17.364C97.3761 17.652 97.1121 17.876 96.8001 18.036C96.4961 18.188 96.1521 18.264 95.7681 18.264C95.3121 18.264 94.9481 18.16 94.6761 17.952C94.4041 17.736 94.2121 17.488 94.1001 17.208H94.0401V19.728H95.0001V20.52H91.4961V19.728ZM95.1561 17.16C95.4921 17.16 95.7721 17.044 95.9961 16.812C96.2201 16.58 96.3321 16.24 96.3321 15.792V14.148C96.3321 13.7 96.2201 13.36 95.9961 13.128C95.7721 12.896 95.4921 12.78 95.1561 12.78C94.8361 12.78 94.5681 12.88 94.3521 13.08C94.1441 13.28 94.0401 13.548 94.0401 13.884V16.056C94.0401 16.392 94.1441 16.66 94.3521 16.86C94.5681 17.06 94.8361 17.16 95.1561 17.16Z" fill="black"/>
<rect x="144" width="116" height="40" rx="4" fill="#F4CBC6"/>
<path d="M165 18.328H165.84V11.536H165V10.744H169.332C169.82 10.744 170.24 10.796 170.592 10.9C170.944 10.996 171.232 11.132 171.456 11.308C171.688 11.484 171.856 11.692 171.96 11.932C172.072 12.172 172.128 12.432 172.128 12.712C172.128 13 172.076 13.256 171.972 13.48C171.876 13.704 171.744 13.896 171.576 14.056C171.408 14.208 171.212 14.336 170.988 14.44C170.772 14.544 170.548 14.62 170.316 14.668V14.728C170.556 14.76 170.804 14.824 171.06 14.92C171.316 15.016 171.548 15.148 171.756 15.316C171.964 15.484 172.132 15.692 172.26 15.94C172.396 16.18 172.464 16.464 172.464 16.792C172.464 17.536 172.224 18.112 171.744 18.52C171.264 18.92 170.54 19.12 169.572 19.12H165V18.328ZM167.784 18.268H169.116C169.548 18.268 169.88 18.16 170.112 17.944C170.352 17.728 170.472 17.424 170.472 17.032V16.468C170.472 16.076 170.352 15.772 170.112 15.556C169.88 15.34 169.548 15.232 169.116 15.232H167.784V18.268ZM167.784 14.404H168.9C169.724 14.404 170.136 14.024 170.136 13.264V12.736C170.136 11.976 169.724 11.596 168.9 11.596H167.784V14.404Z" fill="black"/>
<path d="M175.297 19.264C174.617 19.264 174.121 19.108 173.809 18.796C173.505 18.476 173.353 18.032 173.353 17.464C173.353 16.224 174.269 15.604 176.101 15.604H176.941V14.92C176.941 14.432 176.849 14.064 176.665 13.816C176.481 13.568 176.161 13.444 175.705 13.444C175.537 13.444 175.393 13.456 175.273 13.48C175.153 13.504 175.049 13.536 174.961 13.576V13.636C175.041 13.676 175.117 13.748 175.189 13.852C175.269 13.956 175.309 14.096 175.309 14.272C175.309 14.512 175.233 14.716 175.081 14.884C174.929 15.044 174.701 15.124 174.397 15.124C174.157 15.124 173.957 15.04 173.797 14.872C173.637 14.704 173.557 14.492 173.557 14.236C173.557 14.044 173.613 13.856 173.725 13.672C173.837 13.48 174.005 13.312 174.229 13.168C174.453 13.024 174.729 12.908 175.057 12.82C175.393 12.732 175.777 12.688 176.209 12.688C177.081 12.688 177.725 12.876 178.141 13.252C178.557 13.62 178.765 14.144 178.765 14.824V18.328H179.485V19.012C179.349 19.092 179.173 19.152 178.957 19.192C178.741 19.24 178.517 19.264 178.285 19.264C177.845 19.264 177.533 19.164 177.349 18.964C177.173 18.756 177.085 18.5 177.085 18.196V18.172H177.013C176.957 18.308 176.885 18.44 176.797 18.568C176.717 18.696 176.609 18.812 176.473 18.916C176.345 19.02 176.185 19.104 175.993 19.168C175.801 19.232 175.569 19.264 175.297 19.264ZM175.981 18.184C176.277 18.184 176.509 18.116 176.677 17.98C176.853 17.844 176.941 17.608 176.941 17.272V16.324H176.293C175.909 16.324 175.621 16.404 175.429 16.564C175.245 16.724 175.153 16.952 175.153 17.248V17.44C175.153 17.696 175.229 17.884 175.381 18.004C175.533 18.124 175.733 18.184 175.981 18.184Z" fill="black"/>
<path d="M183.341 19.264C182.837 19.264 182.393 19.18 182.009 19.012C181.633 18.844 181.313 18.612 181.049 18.316C180.793 18.02 180.597 17.672 180.461 17.272C180.333 16.872 180.269 16.436 180.269 15.964C180.269 15.436 180.353 14.972 180.521 14.572C180.689 14.164 180.917 13.82 181.205 13.54C181.501 13.26 181.845 13.048 182.237 12.904C182.637 12.76 183.065 12.688 183.521 12.688C184.257 12.688 184.821 12.84 185.213 13.144C185.613 13.448 185.813 13.832 185.813 14.296C185.813 14.6 185.729 14.844 185.561 15.028C185.393 15.204 185.161 15.292 184.865 15.292C184.569 15.292 184.341 15.216 184.181 15.064C184.021 14.904 183.941 14.696 183.941 14.44C183.941 14.232 183.993 14.06 184.097 13.924C184.209 13.788 184.333 13.688 184.469 13.624V13.552C184.389 13.528 184.293 13.504 184.181 13.48C184.077 13.456 183.933 13.444 183.749 13.444C183.261 13.444 182.881 13.6 182.609 13.912C182.337 14.216 182.201 14.656 182.201 15.232V16.48C182.201 17.008 182.325 17.412 182.573 17.692C182.821 17.964 183.165 18.1 183.605 18.1C184.053 18.1 184.409 17.996 184.673 17.788C184.937 17.58 185.125 17.336 185.237 17.056L185.909 17.452C185.837 17.652 185.733 17.86 185.597 18.076C185.469 18.292 185.301 18.488 185.093 18.664C184.885 18.84 184.637 18.984 184.349 19.096C184.061 19.208 183.725 19.264 183.341 19.264Z" fill="black"/>
<path d="M186.559 18.328H187.279V11.356L186.559 11.2V10.516L189.103 10V15.952H189.175L189.883 15.112L191.311 13.624H190.591V12.832H193.315V13.624H192.463L191.083 14.98L193.111 18.328H193.651V19.12H190.495V18.328H191.035L189.871 16.096L189.103 16.9V18.328H189.763V19.12H186.559V18.328Z" fill="black"/>
<path d="M197.028 19.264C196.532 19.264 196.092 19.184 195.708 19.024C195.332 18.856 195.012 18.628 194.748 18.34C194.492 18.044 194.296 17.696 194.16 17.296C194.024 16.888 193.956 16.444 193.956 15.964C193.956 15.46 194.024 15.004 194.16 14.596C194.304 14.188 194.504 13.844 194.76 13.564C195.024 13.284 195.336 13.068 195.696 12.916C196.064 12.764 196.472 12.688 196.92 12.688C197.368 12.688 197.772 12.756 198.132 12.892C198.492 13.028 198.796 13.224 199.044 13.48C199.3 13.728 199.496 14.032 199.632 14.392C199.768 14.752 199.836 15.152 199.836 15.592V16H195.888V16.48C195.888 17.016 196.028 17.42 196.308 17.692C196.588 17.964 196.96 18.1 197.424 18.1C197.856 18.1 198.204 18.004 198.468 17.812C198.732 17.612 198.92 17.372 199.032 17.092L199.692 17.488C199.62 17.688 199.516 17.892 199.38 18.1C199.244 18.308 199.068 18.5 198.852 18.676C198.636 18.844 198.376 18.984 198.072 19.096C197.768 19.208 197.42 19.264 197.028 19.264ZM195.888 15.244H197.952V15.076C197.952 14.5 197.86 14.096 197.676 13.864C197.492 13.632 197.24 13.516 196.92 13.516C196.6 13.516 196.348 13.632 196.164 13.864C195.98 14.096 195.888 14.5 195.888 15.076V15.244Z" fill="black"/>
<path d="M200.741 18.328H201.461V14.044L200.741 13.888V13.204L203.249 12.688V13.876H203.309C203.421 13.556 203.621 13.28 203.909 13.048C204.197 12.808 204.593 12.688 205.097 12.688C205.865 12.688 206.405 12.884 206.717 13.276C207.037 13.66 207.197 14.24 207.197 15.016V18.328H207.917V19.12H204.713V18.328H205.373V15.076C205.373 14.652 205.297 14.352 205.145 14.176C205.001 13.992 204.753 13.9 204.401 13.9C204.265 13.9 204.129 13.92 203.993 13.96C203.857 13.992 203.737 14.048 203.633 14.128C203.529 14.2 203.445 14.296 203.381 14.416C203.317 14.528 203.285 14.668 203.285 14.836V18.328H203.945V19.12H200.741V18.328Z" fill="black"/>
<path d="M211.242 19.264C210.858 19.264 210.51 19.188 210.198 19.036C209.894 18.876 209.634 18.652 209.418 18.364C209.202 18.076 209.034 17.732 208.914 17.332C208.802 16.924 208.746 16.472 208.746 15.976C208.746 15.48 208.802 15.032 208.914 14.632C209.034 14.224 209.202 13.876 209.418 13.588C209.634 13.3 209.894 13.08 210.198 12.928C210.51 12.768 210.858 12.688 211.242 12.688C211.466 12.688 211.666 12.72 211.842 12.784C212.026 12.84 212.186 12.916 212.322 13.012C212.466 13.108 212.586 13.22 212.682 13.348C212.778 13.476 212.854 13.608 212.91 13.744H212.97V11.356L212.25 11.2V10.516L214.794 10V17.908L215.514 18.064V18.748L212.97 19.264V18.184H212.91C212.798 18.464 212.598 18.716 212.31 18.94C212.03 19.156 211.674 19.264 211.242 19.264ZM211.854 18.16C212.174 18.16 212.438 18.06 212.646 17.86C212.862 17.66 212.97 17.392 212.97 17.056V14.884C212.97 14.548 212.862 14.28 212.646 14.08C212.438 13.88 212.174 13.78 211.854 13.78C211.518 13.78 211.238 13.896 211.014 14.128C210.79 14.36 210.678 14.7 210.678 15.148V16.792C210.678 17.24 210.79 17.58 211.014 17.812C211.238 18.044 211.518 18.16 211.854 18.16Z" fill="black"/>
<path d="M218.781 18.328H219.381L221.985 10.744H223.641L226.245 18.328H226.845V19.12H223.329V18.328H224.289L223.713 16.564H220.977L220.401 18.328H221.361V19.12H218.781V18.328ZM221.217 15.736H223.497L222.369 12.208H222.321L221.217 15.736Z" fill="black"/>
<path d="M227.496 18.328H228.336V11.536H227.496V10.744H232.116C232.996 10.744 233.652 10.94 234.084 11.332C234.524 11.716 234.744 12.284 234.744 13.036C234.744 13.796 234.508 14.392 234.036 14.824C233.564 15.248 232.888 15.46 232.008 15.46H230.28V18.328H231.42V19.12H227.496V18.328ZM230.28 14.596H231.468C231.876 14.596 232.192 14.5 232.416 14.308C232.648 14.108 232.764 13.808 232.764 13.408V12.796C232.764 12.396 232.648 12.1 232.416 11.908C232.192 11.708 231.876 11.608 231.468 11.608H230.28V14.596Z" fill="black"/>
<path d="M235.664 18.328H236.504V11.536H235.664V10.744H239.288V11.536H238.448V18.328H239.288V19.12H235.664V18.328Z" fill="black"/>
<path d="M168.672 31.966L171.171 25.68H171.528L169.029 31.966H168.672ZM172.743 30.657H173.877V27.731H172.743V27.388H174.276V28.214H174.304C174.384 27.962 174.519 27.7613 174.71 27.612C174.906 27.4627 175.163 27.388 175.48 27.388H176.103V27.78H175.361C175.035 27.78 174.771 27.878 174.57 28.074C174.374 28.2653 174.276 28.5243 174.276 28.851V30.657H175.746V31H172.743V30.657ZM178.495 31.084C178 31.084 177.613 30.9183 177.333 30.587C177.057 30.2557 176.92 29.7913 176.92 29.194C176.92 28.5967 177.057 28.1323 177.333 27.801C177.613 27.4697 178 27.304 178.495 27.304C178.989 27.304 179.374 27.4697 179.65 27.801C179.93 28.1323 180.07 28.5967 180.07 29.194C180.07 29.7913 179.93 30.2557 179.65 30.587C179.374 30.9183 178.989 31.084 178.495 31.084ZM178.495 30.734C178.849 30.734 179.129 30.622 179.335 30.398C179.54 30.174 179.643 29.8473 179.643 29.418V28.97C179.643 28.5407 179.54 28.214 179.335 27.99C179.129 27.766 178.849 27.654 178.495 27.654C178.14 27.654 177.86 27.766 177.655 27.99C177.449 28.214 177.347 28.5407 177.347 28.97V29.418C177.347 29.8473 177.449 30.174 177.655 30.398C177.86 30.622 178.14 30.734 178.495 30.734ZM183.63 30.44H183.602C183.532 30.608 183.413 30.7573 183.245 30.888C183.081 31.0187 182.848 31.084 182.545 31.084C182.153 31.084 181.847 30.9673 181.628 30.734C181.413 30.496 181.306 30.1577 181.306 29.719V27.388H181.705V29.649C181.705 30.0223 181.784 30.2953 181.943 30.468C182.106 30.6407 182.342 30.727 182.65 30.727C182.776 30.727 182.897 30.7107 183.014 30.678C183.13 30.6453 183.233 30.5963 183.322 30.531C183.415 30.4657 183.49 30.384 183.546 30.286C183.602 30.1833 183.63 30.0643 183.63 29.929V27.388H184.029V31H183.63V30.44ZM186.903 31C186.707 31 186.562 30.9487 186.469 30.846C186.38 30.7387 186.336 30.5963 186.336 30.419V27.731H185.055V27.388H186.07C186.173 27.388 186.245 27.367 186.287 27.325C186.329 27.283 186.35 27.2107 186.35 27.108V26.114H186.735V27.388H188.457V27.731H186.735V30.657H188.457V31H186.903ZM191.142 31.084C190.638 31.084 190.242 30.9207 189.952 30.594C189.668 30.2627 189.525 29.7983 189.525 29.201C189.525 28.9023 189.563 28.6363 189.637 28.403C189.712 28.165 189.817 27.9667 189.952 27.808C190.092 27.6447 190.26 27.521 190.456 27.437C190.652 27.3483 190.869 27.304 191.107 27.304C191.35 27.304 191.567 27.3483 191.758 27.437C191.95 27.521 192.111 27.6423 192.241 27.801C192.377 27.9597 192.479 28.1487 192.549 28.368C192.619 28.5873 192.654 28.83 192.654 29.096V29.271H189.945V29.446C189.945 29.8333 190.05 30.146 190.26 30.384C190.47 30.6173 190.764 30.734 191.142 30.734C191.408 30.734 191.635 30.6733 191.821 30.552C192.013 30.4307 192.16 30.251 192.262 30.013L192.563 30.202C192.456 30.468 192.281 30.6827 192.038 30.846C191.796 31.0047 191.497 31.084 191.142 31.084ZM191.107 27.64C190.93 27.64 190.769 27.6727 190.624 27.738C190.484 27.7987 190.363 27.885 190.26 27.997C190.162 28.109 190.085 28.2443 190.029 28.403C189.973 28.5617 189.945 28.7367 189.945 28.928V28.97H192.227V28.914C192.227 28.522 192.127 28.2117 191.926 27.983C191.73 27.7543 191.457 27.64 191.107 27.64ZM195.361 31.084C194.997 31.084 194.679 31.0233 194.409 30.902C194.143 30.776 193.912 30.601 193.716 30.377L193.989 30.139C194.166 30.3443 194.364 30.4983 194.584 30.601C194.803 30.699 195.064 30.748 195.368 30.748C195.685 30.748 195.942 30.6873 196.138 30.566C196.338 30.4447 196.439 30.258 196.439 30.006C196.439 29.894 196.418 29.803 196.376 29.733C196.338 29.6583 196.285 29.5977 196.215 29.551C196.145 29.5043 196.063 29.4693 195.97 29.446C195.876 29.418 195.774 29.397 195.662 29.383L195.102 29.306C194.962 29.2873 194.819 29.2617 194.675 29.229C194.535 29.1917 194.406 29.138 194.29 29.068C194.178 28.998 194.084 28.9047 194.01 28.788C193.94 28.6713 193.905 28.522 193.905 28.34C193.905 28.1627 193.94 28.0087 194.01 27.878C194.08 27.7473 194.178 27.64 194.304 27.556C194.43 27.472 194.577 27.409 194.745 27.367C194.917 27.325 195.102 27.304 195.298 27.304C195.634 27.304 195.916 27.36 196.145 27.472C196.378 27.5793 196.574 27.7147 196.733 27.878L196.467 28.13C196.415 28.074 196.355 28.018 196.285 27.962C196.219 27.9013 196.138 27.8477 196.04 27.801C195.946 27.7543 195.837 27.717 195.711 27.689C195.585 27.6563 195.44 27.64 195.277 27.64C194.969 27.64 194.728 27.696 194.556 27.808C194.388 27.92 194.304 28.088 194.304 28.312C194.304 28.424 194.322 28.5173 194.36 28.592C194.402 28.662 194.458 28.7203 194.528 28.767C194.598 28.8137 194.679 28.851 194.773 28.879C194.866 28.9023 194.966 28.921 195.074 28.935L195.641 29.019C195.781 29.0423 195.921 29.0727 196.061 29.11C196.205 29.1427 196.334 29.194 196.446 29.264C196.562 29.334 196.656 29.4273 196.726 29.544C196.796 29.656 196.831 29.803 196.831 29.985C196.831 30.167 196.793 30.3257 196.719 30.461C196.649 30.5963 196.548 30.7107 196.418 30.804C196.292 30.8973 196.138 30.9673 195.956 31.014C195.774 31.0607 195.575 31.084 195.361 31.084ZM198.053 31.966L200.552 25.68H200.909L198.41 31.966H198.053ZM203.902 26.422C203.776 26.422 203.685 26.3963 203.629 26.345C203.578 26.289 203.552 26.2213 203.552 26.142V26.051C203.552 25.9717 203.578 25.9063 203.629 25.855C203.685 25.799 203.776 25.771 203.902 25.771C204.028 25.771 204.117 25.799 204.168 25.855C204.224 25.9063 204.252 25.9717 204.252 26.051V26.142C204.252 26.2213 204.224 26.289 204.168 26.345C204.117 26.3963 204.028 26.422 203.902 26.422ZM202.348 30.657H203.706V27.731H202.348V27.388H204.105V30.657H205.372V31H202.348V30.657ZM206.538 31V27.388H206.937V27.948H206.965C207.035 27.78 207.152 27.6307 207.315 27.5C207.483 27.3693 207.719 27.304 208.022 27.304C208.414 27.304 208.718 27.423 208.932 27.661C209.152 27.8943 209.261 28.2303 209.261 28.669V31H208.862V28.739C208.862 28.3657 208.781 28.0927 208.617 27.92C208.459 27.7473 208.225 27.661 207.917 27.661C207.791 27.661 207.67 27.6773 207.553 27.71C207.437 27.7427 207.332 27.7917 207.238 27.857C207.15 27.9223 207.077 28.0063 207.021 28.109C206.965 28.207 206.937 28.3237 206.937 28.459V31H206.538ZM213.025 30.426H213.004C212.901 30.622 212.756 30.7807 212.57 30.902C212.388 31.0233 212.159 31.084 211.884 31.084C211.431 31.084 211.079 30.923 210.827 30.601C210.575 30.2743 210.449 29.8053 210.449 29.194C210.449 28.5827 210.575 28.116 210.827 27.794C211.079 27.4673 211.431 27.304 211.884 27.304C212.159 27.304 212.388 27.3647 212.57 27.486C212.756 27.6073 212.901 27.766 213.004 27.962H213.025V25.82H213.424V31H213.025V30.426ZM212.017 30.727C212.152 30.727 212.28 30.7083 212.402 30.671C212.523 30.6337 212.63 30.58 212.724 30.51C212.817 30.44 212.889 30.3537 212.941 30.251C212.997 30.1483 213.025 30.034 213.025 29.908V28.48C213.025 28.354 212.997 28.2397 212.941 28.137C212.889 28.0343 212.817 27.948 212.724 27.878C212.63 27.808 212.523 27.7543 212.402 27.717C212.28 27.6797 212.152 27.661 212.017 27.661C211.653 27.661 211.37 27.7753 211.17 28.004C210.974 28.2327 210.876 28.5453 210.876 28.942V29.446C210.876 29.8427 210.974 30.1553 211.17 30.384C211.37 30.6127 211.653 30.727 212.017 30.727ZM216.326 31.084C215.822 31.084 215.425 30.9207 215.136 30.594C214.851 30.2627 214.709 29.7983 214.709 29.201C214.709 28.9023 214.746 28.6363 214.821 28.403C214.896 28.165 215.001 27.9667 215.136 27.808C215.276 27.6447 215.444 27.521 215.64 27.437C215.836 27.3483 216.053 27.304 216.291 27.304C216.534 27.304 216.751 27.3483 216.942 27.437C217.133 27.521 217.294 27.6423 217.425 27.801C217.56 27.9597 217.663 28.1487 217.733 28.368C217.803 28.5873 217.838 28.83 217.838 29.096V29.271H215.129V29.446C215.129 29.8333 215.234 30.146 215.444 30.384C215.654 30.6173 215.948 30.734 216.326 30.734C216.592 30.734 216.818 30.6733 217.005 30.552C217.196 30.4307 217.343 30.251 217.446 30.013L217.747 30.202C217.64 30.468 217.465 30.6827 217.222 30.846C216.979 31.0047 216.681 31.084 216.326 31.084ZM216.291 27.64C216.114 27.64 215.953 27.6727 215.808 27.738C215.668 27.7987 215.547 27.885 215.444 27.997C215.346 28.109 215.269 28.2443 215.213 28.403C215.157 28.5617 215.129 28.7367 215.129 28.928V28.97H217.411V28.914C217.411 28.522 217.311 28.2117 217.11 27.983C216.914 27.7543 216.641 27.64 216.291 27.64ZM218.871 31L220.229 29.173L218.899 27.388H219.382L220.474 28.872H220.495L221.58 27.388H222.035L220.698 29.166L222.07 31H221.587L220.46 29.467H220.439L219.333 31H218.871ZM224.664 31.049C224.515 31.049 224.41 31.0187 224.349 30.958C224.289 30.8973 224.258 30.818 224.258 30.72V30.622C224.258 30.5287 224.289 30.4517 224.349 30.391C224.41 30.3257 224.515 30.293 224.664 30.293C224.814 30.293 224.919 30.3257 224.979 30.391C225.04 30.4517 225.07 30.5287 225.07 30.622V30.72C225.07 30.818 225.04 30.8973 224.979 30.958C224.919 31.0187 224.814 31.049 224.664 31.049ZM227.504 32.057H229.373V27.731H227.42V27.388H229.772V31.819C229.772 31.9963 229.725 32.1363 229.632 32.239C229.543 32.3463 229.401 32.4 229.205 32.4H227.504V32.057ZM229.576 26.422C229.45 26.422 229.359 26.3963 229.303 26.345C229.251 26.289 229.226 26.2213 229.226 26.142V26.051C229.226 25.9717 229.251 25.9063 229.303 25.855C229.359 25.799 229.45 25.771 229.576 25.771C229.702 25.771 229.79 25.799 229.842 25.855C229.893 25.9063 229.919 25.9717 229.919 26.051V26.142C229.919 26.2213 229.893 26.289 229.842 26.345C229.79 26.3963 229.702 26.422 229.576 26.422ZM233.136 31.084C232.772 31.084 232.455 31.0233 232.184 30.902C231.918 30.776 231.687 30.601 231.491 30.377L231.764 30.139C231.941 30.3443 232.14 30.4983 232.359 30.601C232.578 30.699 232.84 30.748 233.143 30.748C233.46 30.748 233.717 30.6873 233.913 30.566C234.114 30.4447 234.214 30.258 234.214 30.006C234.214 29.894 234.193 29.803 234.151 29.733C234.114 29.6583 234.06 29.5977 233.99 29.551C233.92 29.5043 233.838 29.4693 233.745 29.446C233.652 29.418 233.549 29.397 233.437 29.383L232.877 29.306C232.737 29.2873 232.595 29.2617 232.45 29.229C232.31 29.1917 232.182 29.138 232.065 29.068C231.953 28.998 231.86 28.9047 231.785 28.788C231.715 28.6713 231.68 28.522 231.68 28.34C231.68 28.1627 231.715 28.0087 231.785 27.878C231.855 27.7473 231.953 27.64 232.079 27.556C232.205 27.472 232.352 27.409 232.52 27.367C232.693 27.325 232.877 27.304 233.073 27.304C233.409 27.304 233.691 27.36 233.92 27.472C234.153 27.5793 234.349 27.7147 234.508 27.878L234.242 28.13C234.191 28.074 234.13 28.018 234.06 27.962C233.995 27.9013 233.913 27.8477 233.815 27.801C233.722 27.7543 233.612 27.717 233.486 27.689C233.36 27.6563 233.215 27.64 233.052 27.64C232.744 27.64 232.504 27.696 232.331 27.808C232.163 27.92 232.079 28.088 232.079 28.312C232.079 28.424 232.098 28.5173 232.135 28.592C232.177 28.662 232.233 28.7203 232.303 28.767C232.373 28.8137 232.455 28.851 232.548 28.879C232.641 28.9023 232.742 28.921 232.849 28.935L233.416 29.019C233.556 29.0423 233.696 29.0727 233.836 29.11C233.981 29.1427 234.109 29.194 234.221 29.264C234.338 29.334 234.431 29.4273 234.501 29.544C234.571 29.656 234.606 29.803 234.606 29.985C234.606 30.167 234.569 30.3257 234.494 30.461C234.424 30.5963 234.324 30.7107 234.193 30.804C234.067 30.8973 233.913 30.9673 233.731 31.014C233.549 31.0607 233.351 31.084 233.136 31.084Z" fill="black"/>
<rect x="288" width="116" height="40" rx="4" fill="#F4AFAB"/>
<path d="M312.34 25.144C311.66 25.144 311.164 24.988 310.852 24.676C310.548 24.356 310.396 23.912 310.396 23.344C310.396 22.104 311.312 21.484 313.144 21.484H313.984V20.8C313.984 20.312 313.892 19.944 313.708 19.696C313.524 19.448 313.204 19.324 312.748 19.324C312.58 19.324 312.436 19.336 312.316 19.36C312.196 19.384 312.092 19.416 312.004 19.456V19.516C312.084 19.556 312.16 19.628 312.232 19.732C312.312 19.836 312.352 19.976 312.352 20.152C312.352 20.392 312.276 20.596 312.124 20.764C311.972 20.924 311.744 21.004 311.44 21.004C311.2 21.004 311 20.92 310.84 20.752C310.68 20.584 310.6 20.372 310.6 20.116C310.6 19.924 310.656 19.736 310.768 19.552C310.88 19.36 311.048 19.192 311.272 19.048C311.496 18.904 311.772 18.788 312.1 18.7C312.436 18.612 312.82 18.568 313.252 18.568C314.124 18.568 314.768 18.756 315.184 19.132C315.6 19.5 315.808 20.024 315.808 20.704V24.208H316.528V24.892C316.392 24.972 316.216 25.032 316 25.072C315.784 25.12 315.56 25.144 315.328 25.144C314.888 25.144 314.576 25.044 314.392 24.844C314.216 24.636 314.128 24.38 314.128 24.076V24.052H314.056C314 24.188 313.928 24.32 313.84 24.448C313.76 24.576 313.652 24.692 313.516 24.796C313.388 24.9 313.228 24.984 313.036 25.048C312.844 25.112 312.612 25.144 312.34 25.144ZM313.024 24.064C313.32 24.064 313.552 23.996 313.72 23.86C313.896 23.724 313.984 23.488 313.984 23.152V22.204H313.336C312.952 22.204 312.664 22.284 312.472 22.444C312.288 22.604 312.196 22.832 312.196 23.128V23.32C312.196 23.576 312.272 23.764 312.424 23.884C312.576 24.004 312.776 24.064 313.024 24.064Z" fill="black"/>
<path d="M320.623 26.608H321.583V24.088H321.523C321.411 24.368 321.219 24.616 320.947 24.832C320.675 25.04 320.311 25.144 319.855 25.144C319.471 25.144 319.123 25.068 318.811 24.916C318.507 24.756 318.247 24.532 318.031 24.244C317.815 23.956 317.647 23.612 317.527 23.212C317.415 22.804 317.359 22.352 317.359 21.856C317.359 21.36 317.415 20.912 317.527 20.512C317.647 20.104 317.815 19.756 318.031 19.468C318.247 19.18 318.507 18.96 318.811 18.808C319.123 18.648 319.471 18.568 319.855 18.568C320.327 18.568 320.719 18.68 321.031 18.904C321.343 19.128 321.555 19.388 321.667 19.684H321.739L322.567 18.712H323.407V26.608H324.127V27.4H320.623V26.608ZM320.467 24.04C320.787 24.04 321.051 23.94 321.259 23.74C321.475 23.54 321.583 23.272 321.583 22.936V20.764C321.583 20.428 321.475 20.16 321.259 19.96C321.051 19.76 320.787 19.66 320.467 19.66C320.131 19.66 319.851 19.776 319.627 20.008C319.403 20.24 319.291 20.58 319.291 21.028V22.672C319.291 23.12 319.403 23.46 319.627 23.692C319.851 23.924 320.131 24.04 320.467 24.04Z" fill="black"/>
<path d="M326.431 17.884C326.095 17.884 325.831 17.792 325.639 17.608C325.455 17.424 325.363 17.176 325.363 16.864V16.804C325.363 16.492 325.455 16.244 325.639 16.06C325.831 15.876 326.095 15.784 326.431 15.784C326.767 15.784 327.027 15.876 327.211 16.06C327.403 16.244 327.499 16.492 327.499 16.804V16.864C327.499 17.176 327.403 17.424 327.211 17.608C327.027 17.792 326.767 17.884 326.431 17.884ZM324.811 24.208H325.531V19.924L324.811 19.768V19.084L327.355 18.568V24.208H328.075V25H324.811V24.208Z" fill="black"/>
<path d="M331.915 25.144C331.411 25.144 330.967 25.06 330.583 24.892C330.207 24.724 329.887 24.492 329.623 24.196C329.367 23.9 329.171 23.552 329.035 23.152C328.907 22.752 328.843 22.316 328.843 21.844C328.843 21.316 328.927 20.852 329.095 20.452C329.263 20.044 329.491 19.7 329.779 19.42C330.075 19.14 330.419 18.928 330.811 18.784C331.211 18.64 331.639 18.568 332.095 18.568C332.831 18.568 333.395 18.72 333.787 19.024C334.187 19.328 334.387 19.712 334.387 20.176C334.387 20.48 334.303 20.724 334.135 20.908C333.967 21.084 333.735 21.172 333.439 21.172C333.143 21.172 332.915 21.096 332.755 20.944C332.595 20.784 332.515 20.576 332.515 20.32C332.515 20.112 332.567 19.94 332.671 19.804C332.783 19.668 332.907 19.568 333.043 19.504V19.432C332.963 19.408 332.867 19.384 332.755 19.36C332.651 19.336 332.507 19.324 332.323 19.324C331.835 19.324 331.455 19.48 331.183 19.792C330.911 20.096 330.775 20.536 330.775 21.112V22.36C330.775 22.888 330.899 23.292 331.147 23.572C331.395 23.844 331.739 23.98 332.179 23.98C332.627 23.98 332.983 23.876 333.247 23.668C333.511 23.46 333.699 23.216 333.811 22.936L334.483 23.332C334.411 23.532 334.307 23.74 334.171 23.956C334.043 24.172 333.875 24.368 333.667 24.544C333.459 24.72 333.211 24.864 332.923 24.976C332.635 25.088 332.299 25.144 331.915 25.144Z" fill="black"/>
<path d="M335.253 24.208H335.973V19.924L335.253 19.768V19.084L337.761 18.568V19.756H337.821C337.933 19.436 338.133 19.16 338.421 18.928C338.709 18.688 339.105 18.568 339.609 18.568C340.377 18.568 340.917 18.764 341.229 19.156C341.549 19.54 341.709 20.12 341.709 20.896V24.208H342.429V25H339.225V24.208H339.885V20.956C339.885 20.532 339.809 20.232 339.657 20.056C339.513 19.872 339.265 19.78 338.913 19.78C338.777 19.78 338.641 19.8 338.505 19.84C338.369 19.872 338.249 19.928 338.145 20.008C338.041 20.08 337.957 20.176 337.893 20.296C337.829 20.408 337.797 20.548 337.797 20.716V24.208H338.457V25H335.253V24.208Z" fill="black"/>
<path d="M344.563 25.144C344.211 25.144 343.943 25.044 343.759 24.844C343.575 24.636 343.483 24.388 343.483 24.1V24.052C343.483 23.764 343.575 23.52 343.759 23.32C343.943 23.112 344.211 23.008 344.563 23.008C344.915 23.008 345.183 23.112 345.367 23.32C345.551 23.52 345.643 23.764 345.643 24.052V24.1C345.643 24.388 345.551 24.636 345.367 24.844C345.183 25.044 344.915 25.144 344.563 25.144Z" fill="black"/>
<path d="M349.574 24.28C350.31 24.28 350.678 23.84 350.678 22.96V20.752C350.678 19.872 350.31 19.432 349.574 19.432C348.838 19.432 348.47 19.872 348.47 20.752V22.96C348.47 23.84 348.838 24.28 349.574 24.28ZM349.574 25.144C349.118 25.144 348.702 25.072 348.326 24.928C347.958 24.776 347.638 24.56 347.366 24.28C347.102 24 346.898 23.656 346.754 23.248C346.61 22.84 346.538 22.376 346.538 21.856C346.538 21.336 346.61 20.872 346.754 20.464C346.898 20.056 347.102 19.712 347.366 19.432C347.638 19.152 347.958 18.94 348.326 18.796C348.702 18.644 349.118 18.568 349.574 18.568C350.03 18.568 350.442 18.644 350.81 18.796C351.186 18.94 351.506 19.152 351.77 19.432C352.042 19.712 352.25 20.056 352.394 20.464C352.538 20.872 352.61 21.336 352.61 21.856C352.61 22.376 352.538 22.84 352.394 23.248C352.25 23.656 352.042 24 351.77 24.28C351.506 24.56 351.186 24.776 350.81 24.928C350.442 25.072 350.03 25.144 349.574 25.144Z" fill="black"/>
<path d="M353.51 24.208H354.23V19.924L353.51 19.768V19.084L356.018 18.568V19.756H356.066C356.178 19.42 356.358 19.14 356.606 18.916C356.854 18.684 357.178 18.568 357.578 18.568C357.97 18.568 358.278 18.676 358.502 18.892C358.726 19.1 358.838 19.388 358.838 19.756C358.838 20.076 358.754 20.328 358.586 20.512C358.418 20.696 358.182 20.788 357.878 20.788C357.59 20.788 357.37 20.712 357.218 20.56C357.066 20.4 356.99 20.212 356.99 19.996C356.99 19.9 357.01 19.812 357.05 19.732C357.09 19.652 357.138 19.6 357.194 19.576L357.182 19.516C357.158 19.508 357.122 19.504 357.074 19.504C356.946 19.504 356.822 19.54 356.702 19.612C356.582 19.684 356.474 19.776 356.378 19.888C356.282 20 356.202 20.124 356.138 20.26C356.082 20.396 356.054 20.528 356.054 20.656V24.208H357.014V25H353.51V24.208Z" fill="black"/>
<path d="M362.262 27.544C361.67 27.544 361.178 27.512 360.786 27.448C360.394 27.384 360.078 27.292 359.838 27.172C359.606 27.052 359.442 26.908 359.346 26.74C359.25 26.572 359.202 26.38 359.202 26.164C359.202 25.86 359.33 25.612 359.586 25.42C359.85 25.236 360.174 25.112 360.558 25.048V25C360.278 24.936 360.05 24.804 359.874 24.604C359.706 24.396 359.622 24.132 359.622 23.812C359.622 23.444 359.742 23.16 359.982 22.96C360.23 22.752 360.526 22.608 360.87 22.528V22.48C360.462 22.32 360.146 22.088 359.922 21.784C359.706 21.48 359.598 21.1 359.598 20.644C359.598 20.308 359.662 20.012 359.79 19.756C359.918 19.5 360.098 19.284 360.33 19.108C360.562 18.932 360.842 18.8 361.17 18.712C361.498 18.616 361.862 18.568 362.262 18.568C362.55 18.568 362.818 18.592 363.066 18.64C363.322 18.688 363.566 18.768 363.798 18.88C363.886 18 364.282 17.56 364.986 17.56C365.218 17.56 365.41 17.628 365.562 17.764C365.722 17.892 365.802 18.08 365.802 18.328C365.802 18.56 365.73 18.748 365.586 18.892C365.45 19.028 365.254 19.096 364.998 19.096C364.702 19.096 364.47 18.996 364.302 18.796H364.254V19.156C364.47 19.332 364.638 19.54 364.758 19.78C364.886 20.02 364.95 20.308 364.95 20.644C364.95 20.98 364.886 21.276 364.758 21.532C364.63 21.788 364.446 22.004 364.206 22.18C363.974 22.356 363.694 22.492 363.366 22.588C363.038 22.676 362.674 22.72 362.274 22.72C362.106 22.72 361.946 22.712 361.794 22.696C361.642 22.68 361.494 22.656 361.35 22.624C361.126 22.768 361.014 22.952 361.014 23.176C361.014 23.344 361.078 23.472 361.206 23.56C361.334 23.64 361.538 23.68 361.818 23.68H363.21C363.642 23.68 364.01 23.724 364.314 23.812C364.626 23.892 364.878 24.008 365.07 24.16C365.262 24.312 365.402 24.496 365.49 24.712C365.578 24.92 365.622 25.156 365.622 25.42C365.622 26.084 365.346 26.604 364.794 26.98C364.242 27.356 363.398 27.544 362.262 27.544ZM362.274 21.892C362.874 21.892 363.174 21.524 363.174 20.788V20.5C363.174 19.764 362.874 19.396 362.274 19.396C361.674 19.396 361.374 19.764 361.374 20.5V20.788C361.374 21.524 361.674 21.892 362.274 21.892ZM360.678 26.008C360.678 26.264 360.778 26.452 360.978 26.572C361.186 26.7 361.518 26.764 361.974 26.764H362.742C363.662 26.764 364.122 26.492 364.122 25.948C364.122 25.684 364.03 25.508 363.846 25.42C363.67 25.332 363.41 25.288 363.066 25.288H361.026C360.914 25.376 360.826 25.472 360.762 25.576C360.706 25.688 360.678 25.832 360.678 26.008Z" fill="black"/>
<path d="M368.844 24.208H369.444L372.048 16.624H373.704L376.308 24.208H376.908V25H373.392V24.208H374.352L373.776 22.444H371.04L370.464 24.208H371.424V25H368.844V24.208ZM371.28 21.616H373.56L372.432 18.088H372.384L371.28 21.616Z" fill="black"/>
<path d="M377.558 24.208H378.398V17.416H377.558V16.624H382.178C383.058 16.624 383.714 16.82 384.146 17.212C384.586 17.596 384.806 18.164 384.806 18.916C384.806 19.676 384.57 20.272 384.098 20.704C383.626 21.128 382.95 21.34 382.07 21.34H380.342V24.208H381.482V25H377.558V24.208ZM380.342 20.476H381.53C381.938 20.476 382.254 20.38 382.478 20.188C382.71 19.988 382.826 19.688 382.826 19.288V18.676C382.826 18.276 382.71 17.98 382.478 17.788C382.254 17.588 381.938 17.488 381.53 17.488H380.342V20.476Z" fill="black"/>
<path d="M385.726 24.208H386.566V17.416H385.726V16.624H389.35V17.416H388.51V24.208H389.35V25H385.726V24.208Z" fill="black"/>
<path d="M144.354 9.35355C144.549 9.15829 144.549 8.84171 144.354 8.64645L141.172 5.46447C140.976 5.2692 140.66 5.2692 140.464 5.46447C140.269 5.65973 140.269 5.97631 140.464 6.17157L143.293 9L140.464 11.8284C140.269 12.0237 140.269 12.3403 140.464 12.5355C140.66 12.7308 140.976 12.7308 141.172 12.5355L144.354 9.35355ZM115 9.5H144V8.5H115V9.5Z" fill="#F07B0E"/>
<path d="M289.354 9.35355C289.549 9.15829 289.549 8.84171 289.354 8.64645L286.172 5.46447C285.976 5.2692 285.66 5.2692 285.464 5.46447C285.269 5.65973 285.269 5.97631 285.464 6.17157L288.293 9L285.464 11.8284C285.269 12.0237 285.269 12.3403 285.464 12.5355C285.66 12.7308 285.976 12.7308 286.172 12.5355L289.354 9.35355ZM260 9.5H289V8.5H260V9.5Z" fill="#F07B0E"/>
<path d="M114.646 27.6464C114.451 27.8417 114.451 28.1583 114.646 28.3536L117.828 31.5355C118.024 31.7308 118.34 31.7308 118.536 31.5355C118.731 31.3403 118.731 31.0237 118.536 30.8284L115.707 28L118.536 25.1716C118.731 24.9763 118.731 24.6597 118.536 24.4645C118.34 24.2692 118.024 24.2692 117.828 24.4645L114.646 27.6464ZM144 27.5L115 27.5V28.5L144 28.5V27.5Z" fill="#F07B0E"/>
<path d="M258.646 27.6464C258.451 27.8417 258.451 28.1583 258.646 28.3536L261.828 31.5355C262.024 31.7308 262.34 31.7308 262.536 31.5355C262.731 31.3403 262.731 31.0237 262.536 30.8284L259.707 28L262.536 25.1716C262.731 24.9763 262.731 24.6597 262.536 24.4645C262.34 24.2692 262.024 24.2692 261.828 24.4645L258.646 27.6464ZM288 27.5L259 27.5V28.5L288 28.5V27.5Z" fill="#F07B0E"/>
<path d="M432.354 9.35355C432.549 9.15829 432.549 8.84171 432.354 8.64645L429.172 5.46447C428.976 5.2692 428.66 5.2692 428.464 5.46447C428.269 5.65973 428.269 5.97631 428.464 6.17157L431.293 9L428.464 11.8284C428.269 12.0237 428.269 12.3403 428.464 12.5355C428.66 12.7308 428.976 12.7308 429.172 12.5355L432.354 9.35355ZM403 9.5H432V8.5H403V9.5Z" fill="black"/>
</g>
<defs>
<clipPath id="clip0">
<rect width="404" height="40" fill="white"/>
</clipPath>
</defs>
</svg>
